<?xml version="1.0" encoding="UTF-8" standalone="no"?>
<!DOCTYPE svg PUBLIC "-//W3C//DTD SVG 1.1//EN" "http://www.w3.org/Graphics/SVG/1.1/DTD/svg11.dtd">
<svg xmlns="http://www.w3.org/2000/svg" version="1.1" viewBox="0.00 0.00 96.00 96.00">
<g stroke-width="2.00" fill="none" stroke-linecap="butt">
<path stroke="#c68b31" vector-effect="non-scaling-stroke" d="
  M 31.15 41.34
  Q 21.52 28.65 15.88 13.77"
/>
<path stroke="#c68b31" vector-effect="non-scaling-stroke" d="
  M 54.73 64.53
  Q 54.66 64.96 55.32 65.45
  Q 67.80 74.57 82.12 80.05"
/>
</g>
<path fill="#b07c2b" d="
  M 31.15 41.34
  Q 21.52 28.65 15.88 13.77
  L 27.40 10.19
  A 3.77 3.77 0.0 0 1 31.82 11.97
  L 39.94 26.78
  A 4.02 4.01 -36.2 0 1 39.19 31.61
  C 36.29 34.36 32.11 37.23 31.15 41.34
  Z"
/>
<path fill="#db9a36" d="
  M 15.88 13.77
  Q 21.52 28.65 31.15 41.34
  Q 40.22 53.80 52.59 63.41
  Q 53.06 63.78 54.73 64.53
  Q 54.66 64.96 55.32 65.45
  Q 67.80 74.57 82.12 80.05
  Q 79.46 87.68 74.24 85.46
  Q 29.53 66.47 10.63 21.73
  C 8.61 16.94 12.77 15.57 15.88 13.77
  Z"
/>
<path fill="#b07c2b" d="
  M 82.12 80.05
  Q 67.80 74.57 55.32 65.45
  Q 54.66 64.96 54.73 64.53
  C 58.12 64.73 62.28 59.07 64.48 56.70
  A 3.81 3.80 35.8 0 1 69.08 55.96
  L 84.04 64.18
  A 3.71 3.70 -66.9 0 1 85.79 68.55
  L 82.12 80.05
  Z"
/>
</svg>
