<?xml version="1.0" encoding="UTF-8" standalone="no"?>
<!DOCTYPE svg PUBLIC "-//W3C//DTD SVG 1.1//EN" "http://www.w3.org/Graphics/SVG/1.1/DTD/svg11.dtd">
<svg xmlns="http://www.w3.org/2000/svg" version="1.1" viewBox="0.00 0.00 319.00 294.00">
<path fill="#000000" d="
  M 124.88 12.94
  L 124.88 77.25
  A 0.31 0.31 0.0 0 0 125.33 77.53
  L 140.07 70.34
  A 0.31 0.31 0.0 0 1 140.52 70.62
  L 140.52 163.39
  A 0.31 0.31 0.0 0 1 140.21 163.70
  L 121.59 163.70
  A 0.31 0.31 0.0 0 1 121.28 163.39
  L 121.28 83.63
  A 0.31 0.31 0.0 0 0 120.84 83.35
  L 94.00 96.18
  A 0.31 0.31 0.0 0 0 93.82 96.46
  L 93.82 163.37
  A 0.31 0.31 0.0 0 1 93.52 163.68
  L 90.79 163.72
  A 0.31 0.31 0.0 0 1 90.47 163.41
  L 90.46 94.28
  A 0.31 0.31 0.0 0 1 90.64 94.00
  L 121.10 79.39
  A 0.31 0.31 0.0 0 0 121.28 79.11
  L 121.29 7.15
  A 0.31 0.31 0.0 0 1 121.74 6.88
  L 171.20 32.94
  A 0.31 0.31 0.0 0 1 171.37 33.22
  L 171.36 66.33
  A 0.31 0.31 0.0 0 0 171.85 66.59
  L 201.99 45.99
  A 0.31 0.31 0.0 0 1 202.47 46.25
  L 202.47 92.23
  A 0.31 0.31 0.0 0 0 202.66 92.52
  L 232.94 105.03
  A 0.31 0.31 0.0 0 1 233.13 105.32
  L 233.12 163.38
  A 0.31 0.31 0.0 0 1 232.81 163.69
  L 230.09 163.70
  A 0.31 0.31 0.0 0 1 229.78 163.39
  L 229.77 107.61
  A 0.31 0.31 0.0 0 0 229.58 107.32
  L 202.90 96.39
  A 0.31 0.31 0.0 0 0 202.47 96.67
  L 202.48 163.38
  A 0.31 0.31 0.0 0 1 202.17 163.69
  L 183.45 163.70
  A 0.31 0.31 0.0 0 1 183.14 163.39
  L 183.14 84.81
  A 0.31 0.31 0.0 0 1 183.57 84.52
  L 198.42 90.82
  A 0.31 0.31 0.0 0 0 198.85 90.53
  L 198.84 52.87
  A 0.31 0.31 0.0 0 0 198.35 52.61
  L 171.50 71.07
  A 0.31 0.31 0.0 0 0 171.37 71.32
  L 171.37 163.38
  A 0.31 0.31 0.0 0 1 171.06 163.69
  L 152.61 163.71
  A 0.31 0.31 0.0 0 1 152.30 163.40
  L 152.29 80.21
  A 0.31 0.31 0.0 0 1 152.43 79.96
  L 167.95 69.35
  A 0.31 0.31 0.0 0 0 168.09 69.10
  L 168.09 35.42
  A 0.31 0.31 0.0 0 0 167.92 35.14
  L 125.33 12.67
  A 0.31 0.31 0.0 0 0 124.88 12.94
  Z
  M 168.09 74.06
  A 0.32 0.32 0.0 0 0 167.59 73.79
  L 155.73 81.87
  A 0.32 0.32 0.0 0 0 155.59 82.14
  L 155.62 159.73
  A 0.32 0.32 0.0 0 0 155.94 160.05
  L 167.76 160.07
  A 0.32 0.32 0.0 0 0 168.08 159.75
  L 168.09 74.06
  Z
  M 124.88 159.42
  A 0.64 0.64 0.0 0 0 125.52 160.06
  L 136.44 160.08
  A 0.64 0.64 0.0 0 0 137.08 159.44
  L 137.08 76.59
  A 0.64 0.64 0.0 0 0 136.16 76.01
  L 125.24 81.28
  A 0.64 0.64 0.0 0 0 124.88 81.85
  L 124.88 159.42
  Z
  M 198.84 94.83
  A 0.32 0.32 0.0 0 0 198.64 94.53
  L 187.15 89.95
  A 0.32 0.32 0.0 0 0 186.71 90.25
  L 186.71 159.74
  A 0.32 0.32 0.0 0 0 187.03 160.06
  L 198.52 160.07
  A 0.32 0.32 0.0 0 0 198.84 159.75
  L 198.84 94.83
  Z"
/>
<path fill="#000000" d="
  M 112.8757 222.7300
  A 25.38 24.22 90.1 0 1 88.7000 197.3077
  A 25.38 24.22 90.1 0 1 112.9643 171.9700
  A 25.38 24.22 90.1 0 1 137.1400 197.3923
  A 25.38 24.22 90.1 0 1 112.8757 222.7300
  Z
  M 130.4171 193.6389
  A 16.07 16.07 0.0 0 0 114.2911 177.6251
  L 111.3911 177.6352
  A 16.07 16.07 0.0 0 0 95.3773 193.7612
  L 95.4029 201.1011
  A 16.07 16.07 0.0 0 0 111.5289 217.1149
  L 114.4289 217.1048
  A 16.07 16.07 0.0 0 0 130.4427 200.9788
  L 130.4171 193.6389
  Z"
/>
<path fill="#ffd600" d="
  M 155.68 221.63
  L 150.51 221.52
  A 0.33 0.33 0.0 0 1 150.19 221.19
  L 150.16 173.35
  A 0.33 0.33 0.0 0 1 150.49 173.02
  L 155.87 173.01
  A 0.33 0.33 0.0 0 1 156.15 173.16
  L 181.14 210.80
  A 0.33 0.33 0.0 0 0 181.75 210.62
  L 181.74 173.36
  A 0.33 0.33 0.0 0 1 182.07 173.03
  L 187.30 173.03
  A 0.33 0.33 0.0 0 1 187.63 173.36
  L 187.62 221.21
  A 0.33 0.33 0.0 0 1 187.29 221.54
  L 181.98 221.54
  A 0.33 0.33 0.0 0 1 181.70 221.39
  L 156.62 183.63
  A 0.33 0.33 0.0 0 0 156.01 183.81
  L 156.02 221.30
  A 0.33 0.33 0.0 0 1 155.68 221.63
  Z"
/>
<path fill="#000000" d="
  M 209.30 216.98
  L 232.54 216.99
  A 0.42 0.42 0.0 0 1 232.96 217.41
  L 232.93 221.10
  A 0.42 0.42 0.0 0 1 232.51 221.52
  L 203.40 221.51
  A 0.42 0.42 0.0 0 1 202.98 221.09
  L 202.97 173.44
  A 0.42 0.42 0.0 0 1 203.39 173.02
  L 232.52 173.02
  A 0.42 0.42 0.0 0 1 232.94 173.44
  L 232.95 177.34
  A 0.42 0.42 0.0 0 1 232.53 177.76
  L 209.31 177.76
  A 0.42 0.42 0.0 0 0 208.89 178.18
  L 208.88 194.32
  A 0.42 0.42 0.0 0 0 209.30 194.74
  L 230.38 194.74
  A 0.42 0.42 0.0 0 1 230.80 195.16
  L 230.77 199.10
  A 0.42 0.42 0.0 0 1 230.35 199.52
  L 209.31 199.52
  A 0.42 0.42 0.0 0 0 208.89 199.94
  L 208.88 216.56
  A 0.42 0.42 0.0 0 0 209.30 216.98
  Z"
/>
<path fill="#000000" d="
  M 18.86 285.91
  L 6.93 285.93
  A 0.34 0.34 0.0 0 1 6.59 285.56
  L 11.54 231.57
  A 0.34 0.34 0.0 0 1 11.88 231.26
  L 24.52 231.27
  A 0.34 0.34 0.0 0 1 24.83 231.49
  L 36.54 261.82
  A 0.34 0.34 0.0 0 0 37.18 261.82
  L 48.91 231.48
  A 0.34 0.34 0.0 0 1 49.22 231.26
  L 61.83 231.27
  A 0.34 0.34 0.0 0 1 62.17 231.58
  L 67.14 285.56
  A 0.34 0.34 0.0 0 1 66.80 285.93
  L 54.82 285.91
  A 0.34 0.34 0.0 0 1 54.48 285.59
  L 52.23 254.08
  A 0.34 0.34 0.0 0 0 51.57 254.00
  L 40.73 285.27
  A 0.34 0.34 0.0 0 1 40.41 285.50
  L 33.33 285.49
  A 0.34 0.34 0.0 0 1 33.01 285.26
  L 22.21 254.17
  A 0.34 0.34 0.0 0 0 21.55 254.25
  L 19.20 285.60
  A 0.34 0.34 0.0 0 1 18.86 285.91
  Z"
/>
<path fill="#000000" d="
  M 109.25 274.96
  L 88.75 274.98
  A 0.37 0.37 0.0 0 0 88.40 275.23
  L 84.72 285.69
  A 0.37 0.37 0.0 0 1 84.37 285.94
  L 71.67 285.91
  A 0.37 0.37 0.0 0 1 71.33 285.40
  L 93.12 231.50
  A 0.37 0.37 0.0 0 1 93.46 231.27
  L 104.53 231.26
  A 0.37 0.37 0.0 0 1 104.87 231.49
  L 126.66 285.43
  A 0.37 0.37 0.0 0 1 126.32 285.94
  L 113.63 285.92
  A 0.37 0.37 0.0 0 1 113.28 285.67
  L 109.60 275.21
  A 0.37 0.37 0.0 0 0 109.25 274.96
  Z
  M 93.11 263.50
  A 0.31 0.31 0.0 0 0 93.40 263.92
  L 104.58 263.94
  A 0.31 0.31 0.0 0 0 104.88 263.52
  L 99.31 248.54
  A 0.31 0.31 0.0 0 0 98.73 248.54
  L 93.11 263.50
  Z"
/>
<path fill="#000000" d="
  M 165.06 231.27
  L 179.35 231.25
  A 0.32 0.32 0.0 0 1 179.59 231.78
  L 158.31 256.91
  A 0.32 0.32 0.0 0 0 158.31 257.33
  L 183.09 285.39
  A 0.32 0.32 0.0 0 1 182.85 285.92
  L 166.56 285.92
  A 0.32 0.32 0.0 0 1 166.31 285.81
  L 146.79 263.35
  A 0.32 0.32 0.0 0 0 146.23 263.56
  L 146.23 285.62
  A 0.32 0.32 0.0 0 1 145.91 285.94
  L 134.16 285.91
  A 0.32 0.32 0.0 0 1 133.84 285.59
  L 133.85 231.59
  A 0.32 0.32 0.0 0 1 134.17 231.27
  L 145.91 231.26
  A 0.32 0.32 0.0 0 1 146.23 231.58
  L 146.23 252.65
  A 0.32 0.32 0.0 0 0 146.80 252.86
  L 164.81 231.38
  A 0.32 0.32 0.0 0 1 165.06 231.27
  Z"
/>
<path fill="#000000" d="
  M 199.90 242.26
  L 187.64 242.26
  A 0.40 0.40 0.0 0 1 187.24 241.86
  L 187.23 231.66
  A 0.40 0.40 0.0 0 1 187.63 231.26
  L 225.32 231.26
  A 0.40 0.40 0.0 0 1 225.72 231.66
  L 225.73 241.86
  A 0.40 0.40 0.0 0 1 225.33 242.26
  L 213.06 242.26
  A 0.40 0.40 0.0 0 0 212.66 242.66
  L 212.66 285.52
  A 0.40 0.40 0.0 0 1 212.26 285.92
  L 200.70 285.92
  A 0.40 0.40 0.0 0 1 200.30 285.52
  L 200.30 242.66
  A 0.40 0.40 0.0 0 0 199.90 242.26
  Z"
/>
<path fill="#000000" d="
  M 247.50 242.72
  L 247.49 252.39
  A 0.46 0.46 0.0 0 0 247.95 252.85
  L 265.11 252.83
  A 0.46 0.46 0.0 0 1 265.57 253.29
  L 265.59 263.38
  A 0.46 0.46 0.0 0 1 265.13 263.84
  L 247.96 263.84
  A 0.46 0.46 0.0 0 0 247.50 264.30
  L 247.49 274.51
  A 0.46 0.46 0.0 0 0 247.95 274.97
  L 265.97 274.97
  A 0.46 0.46 0.0 0 1 266.43 275.43
  L 266.43 285.45
  A 0.46 0.46 0.0 0 1 265.97 285.91
  L 235.49 285.93
  A 0.46 0.46 0.0 0 1 235.03 285.47
  L 235.03 231.72
  A 0.46 0.46 0.0 0 1 235.49 231.26
  L 265.97 231.27
  A 0.46 0.46 0.0 0 1 266.43 231.73
  L 266.44 241.80
  A 0.46 0.46 0.0 0 1 265.98 242.26
  L 247.96 242.26
  A 0.46 0.46 0.0 0 0 247.50 242.72
  Z"
/>
<path fill="#000000" d="
  M 306.36 256.86
  C 308.44 257.91 310.98 258.36 312.62 259.88
  Q 317.88 264.75 316.89 272.51
  C 315.58 282.82 306.97 285.91 297.76 285.91
  Q 288.23 285.91 278.74 285.94
  A 0.44 0.44 0.0 0 1 278.30 285.50
  L 278.29 231.74
  A 0.44 0.44 0.0 0 1 278.73 231.30
  Q 287.05 231.24 295.51 231.13
  Q 302.23 231.05 307.55 234.43
  C 312.73 237.70 313.04 246.56 311.15 251.17
  Q 309.99 253.97 306.33 256.21
  Q 305.76 256.56 306.36 256.86
  Z
  M 290.95 241.25
  L 290.91 252.13
  A 0.39 0.39 0.0 0 0 291.30 252.53
  L 293.35 252.53
  A 6.82 5.32 0.2 0 0 300.19 247.24
  L 300.19 246.22
  A 6.82 5.32 0.2 0 0 293.39 240.87
  L 291.34 240.87
  A 0.39 0.39 0.0 0 0 290.95 241.25
  Z
  M 290.94 263.69
  L 290.90 276.01
  A 0.30 0.30 0.0 0 0 291.20 276.31
  L 296.97 276.33
  A 6.73 5.71 0.2 0 0 303.72 270.64
  L 303.72 269.14
  A 6.73 5.71 0.2 0 0 297.01 263.41
  L 291.24 263.39
  A 0.30 0.30 0.0 0 0 290.94 263.69
  Z"
/>
</svg>
